<mxfile host="app.diagrams.net" agent="Mozilla/5.0 (Macintosh; Intel Mac OS X 10_15_7) AppleWebKit/537.36 (KHTML, like Gecko) Chrome/128.0.0.0 Safari/537.36" version="24.7.17">
  <diagram id="C5RBs43oDa-KdzZeNtuy" name="Page-1">
    <mxGraphModel dx="794" dy="603" grid="1" gridSize="10" guides="1" tooltips="1" connect="1" arrows="1" fold="1" page="1" pageScale="1" pageWidth="827" pageHeight="1169" math="0" shadow="0">
      <root>
        <mxCell id="WIyWlLk6GJQsqaUBKTNV-0" />
        <mxCell id="WIyWlLk6GJQsqaUBKTNV-1" parent="WIyWlLk6GJQsqaUBKTNV-0" />
        <mxCell id="7NK-HKl2QfB_mlVbLdF_-2" value="YES" style="edgeStyle=orthogonalEdgeStyle;rounded=0;orthogonalLoop=1;jettySize=auto;html=1;" edge="1" parent="WIyWlLk6GJQsqaUBKTNV-1" source="7NK-HKl2QfB_mlVbLdF_-0" target="7NK-HKl2QfB_mlVbLdF_-1">
          <mxGeometry relative="1" as="geometry" />
        </mxCell>
        <mxCell id="7NK-HKl2QfB_mlVbLdF_-16" value="NO" style="edgeStyle=orthogonalEdgeStyle;rounded=0;orthogonalLoop=1;jettySize=auto;html=1;" edge="1" parent="WIyWlLk6GJQsqaUBKTNV-1" source="7NK-HKl2QfB_mlVbLdF_-0" target="7NK-HKl2QfB_mlVbLdF_-15">
          <mxGeometry relative="1" as="geometry" />
        </mxCell>
        <mxCell id="7NK-HKl2QfB_mlVbLdF_-0" value="Is there offer and acceptance?" style="rounded=0;whiteSpace=wrap;html=1;" vertex="1" parent="WIyWlLk6GJQsqaUBKTNV-1">
          <mxGeometry x="350" y="280" width="120" height="60" as="geometry" />
        </mxCell>
        <mxCell id="7NK-HKl2QfB_mlVbLdF_-6" value="YES" style="edgeStyle=orthogonalEdgeStyle;rounded=0;orthogonalLoop=1;jettySize=auto;html=1;" edge="1" parent="WIyWlLk6GJQsqaUBKTNV-1" source="7NK-HKl2QfB_mlVbLdF_-1" target="7NK-HKl2QfB_mlVbLdF_-5">
          <mxGeometry relative="1" as="geometry" />
        </mxCell>
        <mxCell id="7NK-HKl2QfB_mlVbLdF_-19" value="NO" style="edgeStyle=orthogonalEdgeStyle;rounded=0;orthogonalLoop=1;jettySize=auto;html=1;" edge="1" parent="WIyWlLk6GJQsqaUBKTNV-1" source="7NK-HKl2QfB_mlVbLdF_-1" target="7NK-HKl2QfB_mlVbLdF_-18">
          <mxGeometry relative="1" as="geometry" />
        </mxCell>
        <mxCell id="7NK-HKl2QfB_mlVbLdF_-1" value="Is there an intention to create legal relations?" style="rounded=0;whiteSpace=wrap;html=1;" vertex="1" parent="WIyWlLk6GJQsqaUBKTNV-1">
          <mxGeometry x="350" y="420" width="120" height="60" as="geometry" />
        </mxCell>
        <mxCell id="7NK-HKl2QfB_mlVbLdF_-8" value="YES" style="edgeStyle=orthogonalEdgeStyle;rounded=0;orthogonalLoop=1;jettySize=auto;html=1;" edge="1" parent="WIyWlLk6GJQsqaUBKTNV-1" source="7NK-HKl2QfB_mlVbLdF_-5" target="7NK-HKl2QfB_mlVbLdF_-7">
          <mxGeometry relative="1" as="geometry" />
        </mxCell>
        <mxCell id="7NK-HKl2QfB_mlVbLdF_-21" value="NO" style="edgeStyle=orthogonalEdgeStyle;rounded=0;orthogonalLoop=1;jettySize=auto;html=1;" edge="1" parent="WIyWlLk6GJQsqaUBKTNV-1" source="7NK-HKl2QfB_mlVbLdF_-5" target="7NK-HKl2QfB_mlVbLdF_-20">
          <mxGeometry relative="1" as="geometry" />
        </mxCell>
        <mxCell id="7NK-HKl2QfB_mlVbLdF_-5" value="Is there consideration?" style="whiteSpace=wrap;html=1;rounded=0;" vertex="1" parent="WIyWlLk6GJQsqaUBKTNV-1">
          <mxGeometry x="350" y="560" width="120" height="60" as="geometry" />
        </mxCell>
        <mxCell id="7NK-HKl2QfB_mlVbLdF_-10" value="YES" style="edgeStyle=orthogonalEdgeStyle;rounded=0;orthogonalLoop=1;jettySize=auto;html=1;" edge="1" parent="WIyWlLk6GJQsqaUBKTNV-1" source="7NK-HKl2QfB_mlVbLdF_-7" target="7NK-HKl2QfB_mlVbLdF_-9">
          <mxGeometry relative="1" as="geometry" />
        </mxCell>
        <mxCell id="7NK-HKl2QfB_mlVbLdF_-23" value="NO" style="edgeStyle=orthogonalEdgeStyle;rounded=0;orthogonalLoop=1;jettySize=auto;html=1;" edge="1" parent="WIyWlLk6GJQsqaUBKTNV-1" source="7NK-HKl2QfB_mlVbLdF_-7" target="7NK-HKl2QfB_mlVbLdF_-22">
          <mxGeometry relative="1" as="geometry" />
        </mxCell>
        <mxCell id="7NK-HKl2QfB_mlVbLdF_-7" value="Is there legal capacity?" style="whiteSpace=wrap;html=1;rounded=0;" vertex="1" parent="WIyWlLk6GJQsqaUBKTNV-1">
          <mxGeometry x="350" y="700" width="120" height="60" as="geometry" />
        </mxCell>
        <mxCell id="7NK-HKl2QfB_mlVbLdF_-25" value="NO" style="edgeStyle=orthogonalEdgeStyle;rounded=0;orthogonalLoop=1;jettySize=auto;html=1;" edge="1" parent="WIyWlLk6GJQsqaUBKTNV-1" source="7NK-HKl2QfB_mlVbLdF_-9" target="7NK-HKl2QfB_mlVbLdF_-24">
          <mxGeometry relative="1" as="geometry" />
        </mxCell>
        <mxCell id="7NK-HKl2QfB_mlVbLdF_-27" value="" style="edgeStyle=orthogonalEdgeStyle;rounded=0;orthogonalLoop=1;jettySize=auto;html=1;" edge="1" parent="WIyWlLk6GJQsqaUBKTNV-1" source="7NK-HKl2QfB_mlVbLdF_-9" target="7NK-HKl2QfB_mlVbLdF_-26">
          <mxGeometry relative="1" as="geometry" />
        </mxCell>
        <mxCell id="7NK-HKl2QfB_mlVbLdF_-9" value="Is there consent?" style="whiteSpace=wrap;html=1;rounded=0;" vertex="1" parent="WIyWlLk6GJQsqaUBKTNV-1">
          <mxGeometry x="350" y="840" width="120" height="60" as="geometry" />
        </mxCell>
        <mxCell id="7NK-HKl2QfB_mlVbLdF_-15" value="NO FORMATION" style="whiteSpace=wrap;html=1;rounded=0;" vertex="1" parent="WIyWlLk6GJQsqaUBKTNV-1">
          <mxGeometry x="550" y="280" width="120" height="60" as="geometry" />
        </mxCell>
        <mxCell id="7NK-HKl2QfB_mlVbLdF_-18" value="NO FORMATION" style="whiteSpace=wrap;html=1;rounded=0;" vertex="1" parent="WIyWlLk6GJQsqaUBKTNV-1">
          <mxGeometry x="550" y="420" width="120" height="60" as="geometry" />
        </mxCell>
        <mxCell id="7NK-HKl2QfB_mlVbLdF_-20" value="NO FORMATION" style="whiteSpace=wrap;html=1;rounded=0;" vertex="1" parent="WIyWlLk6GJQsqaUBKTNV-1">
          <mxGeometry x="550" y="560" width="120" height="60" as="geometry" />
        </mxCell>
        <mxCell id="7NK-HKl2QfB_mlVbLdF_-22" value="NO FORMATION" style="whiteSpace=wrap;html=1;rounded=0;" vertex="1" parent="WIyWlLk6GJQsqaUBKTNV-1">
          <mxGeometry x="550" y="700" width="120" height="60" as="geometry" />
        </mxCell>
        <mxCell id="7NK-HKl2QfB_mlVbLdF_-24" value="NO FORMATION" style="whiteSpace=wrap;html=1;rounded=0;" vertex="1" parent="WIyWlLk6GJQsqaUBKTNV-1">
          <mxGeometry x="550" y="840" width="120" height="60" as="geometry" />
        </mxCell>
        <mxCell id="7NK-HKl2QfB_mlVbLdF_-29" value="NO" style="edgeStyle=orthogonalEdgeStyle;rounded=0;orthogonalLoop=1;jettySize=auto;html=1;" edge="1" parent="WIyWlLk6GJQsqaUBKTNV-1" source="7NK-HKl2QfB_mlVbLdF_-26" target="7NK-HKl2QfB_mlVbLdF_-28">
          <mxGeometry relative="1" as="geometry" />
        </mxCell>
        <mxCell id="7NK-HKl2QfB_mlVbLdF_-31" value="YES" style="edgeStyle=orthogonalEdgeStyle;rounded=0;orthogonalLoop=1;jettySize=auto;html=1;" edge="1" parent="WIyWlLk6GJQsqaUBKTNV-1" source="7NK-HKl2QfB_mlVbLdF_-26" target="7NK-HKl2QfB_mlVbLdF_-30">
          <mxGeometry relative="1" as="geometry" />
        </mxCell>
        <mxCell id="7NK-HKl2QfB_mlVbLdF_-26" value="Is there&amp;nbsp; legality?" style="whiteSpace=wrap;html=1;rounded=0;" vertex="1" parent="WIyWlLk6GJQsqaUBKTNV-1">
          <mxGeometry x="350" y="980" width="120" height="60" as="geometry" />
        </mxCell>
        <mxCell id="7NK-HKl2QfB_mlVbLdF_-28" value="NO FORMATION" style="whiteSpace=wrap;html=1;rounded=0;" vertex="1" parent="WIyWlLk6GJQsqaUBKTNV-1">
          <mxGeometry x="550" y="980" width="120" height="60" as="geometry" />
        </mxCell>
        <mxCell id="7NK-HKl2QfB_mlVbLdF_-30" value="FORMATION" style="whiteSpace=wrap;html=1;rounded=0;" vertex="1" parent="WIyWlLk6GJQsqaUBKTNV-1">
          <mxGeometry x="150" y="980" width="120" height="60" as="geometry" />
        </mxCell>
      </root>
    </mxGraphModel>
  </diagram>
</mxfile>
